<?xml version="1.0" standalone="no"?>
<!DOCTYPE svg PUBLIC "-//W3C//DTD SVG 20010904//EN"
 "http://www.w3.org/TR/2001/REC-SVG-20010904/DTD/svg10.dtd">
<svg version="1.0" xmlns="http://www.w3.org/2000/svg"
 width="1030.000000pt" height="1030.000000pt" viewBox="0 0 1030.000000 1030.000000"
 preserveAspectRatio="xMidYMid meet">
<metadata>
Created by potrace 1.11, written by Peter Selinger 2001-2013
</metadata>
<g transform="translate(0.000000,1030.000000) scale(0.100000,-0.100000)"
fill="#000000" stroke="none">
<path d="M2700 7569 c-1312 -1314 -2386 -2391 -2388 -2393 -1 -2 390 -394 869
-872 479 -478 880 -878 890 -889 19 -19 46 7 2410 2374 l2390 2394 -20 21
c-87 93 -1753 1756 -1759 1756 -4 -1 -1080 -1076 -2392 -2391z"/>
<path d="M5753 6124 c-871 -872 -1583 -1587 -1583 -1590 0 -3 599 -603 1332
-1334 l1332 -1328 1591 1589 1590 1589 -1330 1330 c-732 731 -1334 1330 -1340
1330 -5 -1 -722 -714 -1592 -1586z"/>
<path d="M3125 3499 l-569 -569 1329 -1330 c732 -731 1333 -1330 1337 -1330 4
0 264 256 577 568 l570 568 -1330 1330 c-731 731 -1332 1330 -1336 1331 -5 1
-264 -254 -578 -568z"/>
</g>
</svg>
